<?xml version="1.0" standalone="no"?>
<!DOCTYPE svg PUBLIC "-//W3C//DTD SVG 20010904//EN"
 "http://www.w3.org/TR/2001/REC-SVG-20010904/DTD/svg10.dtd">
<svg version="1.0" xmlns="http://www.w3.org/2000/svg"
 width="512.000000pt" height="512.000000pt" viewBox="0 0 512.000000 512.000000"
 preserveAspectRatio="xMidYMid meet">
<metadata>
Created by potrace 1.11, written by Peter Selinger 2001-2013
</metadata>
<g transform="translate(0.000000,512.000000) scale(0.100000,-0.100000)"
fill="#000000" stroke="none">
<path d="M1400 3913 l-1 -698 -81 -45 c-45 -25 -190 -114 -322 -198 -253 -160
-427 -253 -561 -298 -99 -33 -235 -43 -336 -24 -62 12 -72 12 -86 -3 -14 -14
-15 -22 -4 -59 7 -24 34 -83 59 -133 91 -175 235 -287 390 -303 70 -8 73 -9
127 -64 139 -143 296 -209 545 -228 58 -4 142 -16 188 -26 l82 -19 0 -652 0
-653 1160 0 1160 0 0 653 0 652 83 19 c45 10 134 22 197 27 144 12 222 30 315
73 95 44 150 82 219 153 55 56 56 57 128 64 104 12 186 54 273 143 72 73 149
201 176 294 11 37 10 45 -4 59 -14 15 -24 15 -86 3 -101 -19 -237 -9 -336 24
-134 45 -308 138 -561 298 -132 84 -277 173 -322 198 l-81 45 -1 698 0 697
-1160 0 -1160 0 0 -697z m370 -743 c216 -48 413 -220 560 -485 l22 -40 -69
-70 c-54 -56 -81 -97 -132 -195 -77 -150 -134 -234 -193 -282 -103 -85 -279
-158 -429 -178 -87 -12 -209 -6 -209 11 0 5 14 28 30 51 39 53 38 65 -3 34
-60 -46 -102 -57 -216 -58 -123 -1 -202 17 -306 68 -64 31 -176 112 -183 133
-1 4 42 30 98 56 55 27 98 50 96 53 -2 2 -41 -4 -87 -13 -59 -12 -117 -16
-208 -13 -114 3 -131 6 -179 31 -89 46 -168 132 -225 244 l-16 31 97 0 c224 1
406 78 854 364 353 225 445 268 578 268 41 0 95 -5 120 -10z m1833 -11 c89
-29 198 -90 466 -261 408 -259 624 -350 833 -351 l96 -1 -15 -30 c-57 -111
-137 -197 -225 -243 -48 -25 -65 -28 -179 -31 -91 -3 -149 1 -208 13 -46 9
-85 15 -87 13 -2 -3 41 -26 96 -53 56 -26 99 -52 98 -56 -7 -21 -119 -102
-183 -133 -104 -51 -183 -69 -305 -68 -112 1 -157 13 -217 58 -41 31 -42 19
-3 -34 17 -23 30 -46 30 -51 0 -17 -122 -23 -209 -11 -150 20 -326 93 -429
178 -59 48 -116 132 -193 282 -50 97 -79 140 -131 195 -38 38 -68 72 -68 74 0
10 98 163 137 214 126 164 277 269 438 306 75 17 191 13 258 -10z"/>
</g>
</svg>
